<svg width="266" height="56" viewBox="0 0 266 56" fill="none" xmlns="http://www.w3.org/2000/svg">
<g filter="url(#filter0_d_349_80401)">
<path d="M49.3997 45.34C49.2317 45.34 49.1117 45.316 49.0397 45.268C48.5357 45.076 48.2837 44.752 48.2837 44.296C48.2837 44.248 48.2837 44.188 48.2837 44.116C48.3077 44.044 48.3317 43.972 48.3557 43.9C49.0517 41.836 49.6277 39.7 50.0837 37.492C50.5397 35.284 50.7677 33.196 50.7677 31.228C50.7677 31.012 50.7677 30.796 50.7677 30.58C50.7677 30.364 50.7557 30.16 50.7317 29.968C50.6597 28.6 50.4077 27.34 49.9757 26.188C49.5677 25.036 48.9917 24.088 48.2477 23.344C47.5277 22.576 46.6397 22.132 45.5837 22.012C44.6237 21.916 43.7357 22.096 42.9197 22.552C42.1277 23.008 41.4557 23.656 40.9037 24.496C40.3757 25.312 40.0037 26.248 39.7877 27.304C39.7157 27.64 39.5717 27.892 39.3557 28.06C39.1637 28.228 38.9597 28.3 38.7437 28.276C38.4797 28.276 38.2397 28.168 38.0237 27.952C37.8317 27.736 37.7117 27.472 37.6637 27.16C37.3997 26.008 36.9677 24.976 36.3677 24.064C35.7917 23.128 35.0957 22.396 34.2797 21.868C33.4877 21.316 32.5997 21.04 31.6157 21.04C30.4637 21.04 29.4797 21.436 28.6637 22.228C27.8717 23.02 27.2477 24.04 26.7917 25.288C26.3357 26.512 26.0357 27.784 25.8917 29.104C25.8437 29.512 25.8077 29.932 25.7837 30.364C25.7597 30.772 25.7477 31.204 25.7477 31.66C25.7477 33.556 25.9397 35.56 26.3237 37.672C26.7317 39.784 27.2357 41.872 27.8357 43.936C27.8597 44.008 27.8717 44.068 27.8717 44.116C27.8957 44.188 27.9077 44.248 27.9077 44.296C27.9077 44.56 27.8237 44.776 27.6557 44.944C27.4877 45.112 27.3077 45.22 27.1157 45.268C27.0677 45.292 27.0077 45.304 26.9357 45.304C26.8637 45.304 26.8037 45.304 26.7557 45.304C26.2997 45.304 25.9757 45.052 25.7837 44.548C25.1117 42.412 24.5597 40.216 24.1277 37.96C23.7197 35.68 23.5157 33.496 23.5157 31.408C23.5157 30.88 23.5277 30.364 23.5517 29.86C23.5997 29.356 23.6477 28.876 23.6957 28.42C23.8637 26.884 24.2357 25.432 24.8117 24.064C25.4117 22.672 26.1917 21.508 27.1517 20.572C28.1357 19.636 29.2637 19.084 30.5357 18.916C30.9437 18.844 31.3517 18.808 31.7597 18.808C33.3197 18.808 34.7357 19.264 36.0077 20.176C37.3037 21.088 38.2877 22.252 38.9597 23.668C39.5837 22.348 40.4597 21.34 41.5877 20.644C42.7157 19.924 43.9037 19.564 45.1517 19.564C46.3757 19.564 47.5517 19.924 48.6797 20.644C49.8317 21.34 50.7917 22.432 51.5597 23.92C52.3517 25.384 52.8077 27.292 52.9277 29.644C52.9517 29.86 52.9637 30.088 52.9637 30.328C52.9637 30.544 52.9637 30.772 52.9637 31.012C52.9637 33.148 52.7237 35.416 52.2437 37.816C51.7637 40.216 51.1397 42.484 50.3717 44.62C50.2997 44.86 50.1677 45.04 49.9757 45.16C49.7837 45.28 49.5917 45.34 49.3997 45.34Z" fill="#53AD56"/>
<path d="M82.5971 46.06C82.0451 46.06 81.6971 45.76 81.5531 45.16C81.1211 42.184 80.7971 39.04 80.5811 35.728C80.3891 32.392 80.2931 29.092 80.2931 25.828C80.2931 23.86 80.3291 21.964 80.4011 20.14C80.4011 19.756 80.5211 19.492 80.7611 19.348C81.0251 19.18 81.2771 19.096 81.5171 19.096C81.8291 19.12 82.0811 19.24 82.2731 19.456C82.4651 19.648 82.5611 19.912 82.5611 20.248C82.5371 20.896 82.5131 21.832 82.4891 23.056C82.4651 24.256 82.4531 25.528 82.4531 26.872C82.4531 27.976 82.4531 29.068 82.4531 30.148C82.4771 31.228 82.5011 32.188 82.5251 33.028C82.5731 33.844 82.6091 34.456 82.6331 34.864C83.2331 34.072 84.1091 33.292 85.2611 32.524C86.4371 31.732 87.7211 30.988 89.1131 30.292C90.5291 29.596 91.9211 28.984 93.2891 28.456C94.6811 27.904 95.9051 27.46 96.9611 27.124C97.1051 27.076 97.2131 27.052 97.2851 27.052C97.5731 27.052 97.8371 27.172 98.0771 27.412C98.3171 27.628 98.4371 27.892 98.4371 28.204C98.4371 28.396 98.3651 28.588 98.2211 28.78C98.1011 28.972 97.9091 29.104 97.6451 29.176C95.5091 29.992 93.5411 30.772 91.7411 31.516C89.9651 32.236 88.4291 32.992 87.1331 33.784C85.8371 34.552 84.8651 35.416 84.2171 36.376C84.8891 37.096 85.7771 37.78 86.8811 38.428C88.0091 39.076 89.2331 39.688 90.5531 40.264C91.8971 40.816 93.2531 41.332 94.6211 41.812C95.9891 42.292 97.2611 42.724 98.4371 43.108C98.9411 43.324 99.1931 43.66 99.1931 44.116C99.1931 44.212 99.1691 44.332 99.1211 44.476C98.9291 44.98 98.6171 45.232 98.1851 45.232C98.1131 45.232 97.9811 45.208 97.7891 45.16C97.6931 45.112 97.2371 44.944 96.4211 44.656C95.6291 44.392 94.6211 44.032 93.3971 43.576C92.1971 43.144 90.9251 42.652 89.5811 42.1C88.2611 41.524 87.0011 40.9 85.8011 40.228C84.6011 39.556 83.6291 38.872 82.8851 38.176C83.0051 39.328 83.1011 40.3 83.1731 41.092C83.2451 41.86 83.3171 42.532 83.3891 43.108C83.4851 43.708 83.5811 44.284 83.6771 44.836C83.7251 45.244 83.6291 45.544 83.3891 45.736C83.1491 45.952 82.8851 46.06 82.5971 46.06ZM123.413 45.448C123.221 45.448 123.029 45.388 122.837 45.268C122.645 45.172 122.501 45.004 122.405 44.764C122.021 43.876 121.721 42.904 121.505 41.848C121.289 40.792 121.121 39.784 121.001 38.824C120.473 40.024 119.765 41.116 118.877 42.1C117.989 43.06 116.981 43.828 115.853 44.404C114.725 44.98 113.513 45.304 112.217 45.376C109.769 45.496 107.765 45.1 106.205 44.188C104.669 43.3 103.529 42.04 102.785 40.408C102.065 38.752 101.705 36.892 101.705 34.828C101.705 33.34 101.873 31.804 102.209 30.22C102.545 28.612 103.025 27.004 103.649 25.396C103.817 24.94 104.141 24.712 104.621 24.712C104.957 24.712 105.233 24.808 105.449 25C105.665 25.192 105.773 25.432 105.773 25.72C105.773 25.84 105.737 25.996 105.665 26.188C105.065 27.724 104.597 29.236 104.261 30.724C103.949 32.212 103.793 33.628 103.793 34.972C103.793 36.58 104.057 38.02 104.585 39.292C105.113 40.564 105.941 41.56 107.069 42.28C108.197 42.976 109.661 43.288 111.461 43.216C113.237 43.144 114.809 42.556 116.177 41.452C117.569 40.348 118.661 38.836 119.453 36.916C120.245 34.972 120.641 32.764 120.641 30.292C120.641 29.86 120.617 29.416 120.569 28.96C120.545 28.504 120.509 28.048 120.461 27.592C120.413 27.184 120.509 26.908 120.749 26.764C121.013 26.62 121.277 26.548 121.541 26.548C121.877 26.572 122.153 26.692 122.369 26.908C122.609 27.1 122.729 27.364 122.729 27.7C122.729 28.66 122.753 29.752 122.801 30.976C122.873 32.2 122.957 33.472 123.053 34.792C123.173 36.112 123.305 37.384 123.449 38.608C123.593 39.832 123.761 40.924 123.953 41.884C124.145 42.82 124.361 43.528 124.601 44.008C124.649 44.08 124.673 44.152 124.673 44.224C124.673 44.296 124.673 44.368 124.673 44.44C124.673 44.752 124.541 44.992 124.277 45.16C124.013 45.352 123.725 45.448 123.413 45.448ZM201.857 46.06C201.305 46.06 200.957 45.76 200.813 45.16C200.381 42.184 200.057 39.04 199.841 35.728C199.649 32.392 199.553 29.092 199.553 25.828C199.553 23.86 199.589 21.964 199.661 20.14C199.661 19.756 199.781 19.492 200.021 19.348C200.285 19.18 200.537 19.096 200.777 19.096C201.089 19.12 201.341 19.24 201.533 19.456C201.725 19.648 201.821 19.912 201.821 20.248C201.797 20.896 201.773 21.832 201.749 23.056C201.725 24.256 201.713 25.528 201.713 26.872C201.713 27.976 201.713 29.068 201.713 30.148C201.737 31.228 201.761 32.188 201.785 33.028C201.833 33.844 201.869 34.456 201.893 34.864C202.493 34.072 203.369 33.292 204.521 32.524C205.697 31.732 206.981 30.988 208.373 30.292C209.789 29.596 211.181 28.984 212.549 28.456C213.941 27.904 215.165 27.46 216.221 27.124C216.365 27.076 216.473 27.052 216.545 27.052C216.833 27.052 217.097 27.172 217.337 27.412C217.577 27.628 217.697 27.892 217.697 28.204C217.697 28.396 217.625 28.588 217.481 28.78C217.361 28.972 217.169 29.104 216.905 29.176C214.769 29.992 212.801 30.772 211.001 31.516C209.225 32.236 207.689 32.992 206.393 33.784C205.097 34.552 204.125 35.416 203.477 36.376C204.149 37.096 205.037 37.78 206.141 38.428C207.269 39.076 208.493 39.688 209.813 40.264C211.157 40.816 212.513 41.332 213.881 41.812C215.249 42.292 216.521 42.724 217.697 43.108C218.201 43.324 218.453 43.66 218.453 44.116C218.453 44.212 218.429 44.332 218.381 44.476C218.189 44.98 217.877 45.232 217.445 45.232C217.373 45.232 217.241 45.208 217.049 45.16C216.953 45.112 216.497 44.944 215.681 44.656C214.889 44.392 213.881 44.032 212.657 43.576C211.457 43.144 210.185 42.652 208.841 42.1C207.521 41.524 206.261 40.9 205.061 40.228C203.861 39.556 202.889 38.872 202.145 38.176C202.265 39.328 202.361 40.3 202.433 41.092C202.505 41.86 202.577 42.532 202.649 43.108C202.745 43.708 202.841 44.284 202.937 44.836C202.985 45.244 202.889 45.544 202.649 45.736C202.409 45.952 202.145 46.06 201.857 46.06ZM242.672 45.448C242.48 45.448 242.288 45.388 242.096 45.268C241.904 45.172 241.76 45.004 241.664 44.764C241.28 43.876 240.98 42.904 240.764 41.848C240.548 40.792 240.38 39.784 240.26 38.824C239.732 40.024 239.024 41.116 238.136 42.1C237.248 43.06 236.24 43.828 235.112 44.404C233.984 44.98 232.772 45.304 231.476 45.376C229.028 45.496 227.024 45.1 225.464 44.188C223.928 43.3 222.788 42.04 222.044 40.408C221.324 38.752 220.964 36.892 220.964 34.828C220.964 33.34 221.132 31.804 221.468 30.22C221.804 28.612 222.284 27.004 222.908 25.396C223.076 24.94 223.4 24.712 223.88 24.712C224.216 24.712 224.492 24.808 224.708 25C224.924 25.192 225.032 25.432 225.032 25.72C225.032 25.84 224.996 25.996 224.924 26.188C224.324 27.724 223.856 29.236 223.52 30.724C223.208 32.212 223.052 33.628 223.052 34.972C223.052 36.58 223.316 38.02 223.844 39.292C224.372 40.564 225.2 41.56 226.328 42.28C227.456 42.976 228.92 43.288 230.72 43.216C232.496 43.144 234.068 42.556 235.436 41.452C236.828 40.348 237.92 38.836 238.712 36.916C239.504 34.972 239.9 32.764 239.9 30.292C239.9 29.86 239.876 29.416 239.828 28.96C239.804 28.504 239.768 28.048 239.72 27.592C239.672 27.184 239.768 26.908 240.008 26.764C240.272 26.62 240.536 26.548 240.8 26.548C241.136 26.572 241.412 26.692 241.628 26.908C241.868 27.1 241.988 27.364 241.988 27.7C241.988 28.66 242.012 29.752 242.06 30.976C242.132 32.2 242.216 33.472 242.312 34.792C242.432 36.112 242.564 37.384 242.708 38.608C242.852 39.832 243.02 40.924 243.212 41.884C243.404 42.82 243.62 43.528 243.86 44.008C243.908 44.08 243.932 44.152 243.932 44.224C243.932 44.296 243.932 44.368 243.932 44.44C243.932 44.752 243.8 44.992 243.536 45.16C243.272 45.352 242.984 45.448 242.672 45.448Z" fill="black"/>
<path d="M168.66 45.34C168.492 45.34 168.372 45.316 168.3 45.268C167.796 45.076 167.544 44.752 167.544 44.296C167.544 44.248 167.544 44.188 167.544 44.116C167.568 44.044 167.592 43.972 167.616 43.9C168.312 41.836 168.888 39.7 169.344 37.492C169.8 35.284 170.028 33.196 170.028 31.228C170.028 31.012 170.028 30.796 170.028 30.58C170.028 30.364 170.016 30.16 169.992 29.968C169.92 28.6 169.668 27.34 169.236 26.188C168.828 25.036 168.252 24.088 167.508 23.344C166.788 22.576 165.9 22.132 164.844 22.012C163.884 21.916 162.996 22.096 162.18 22.552C161.388 23.008 160.716 23.656 160.164 24.496C159.636 25.312 159.264 26.248 159.048 27.304C158.976 27.64 158.832 27.892 158.616 28.06C158.424 28.228 158.22 28.3 158.004 28.276C157.74 28.276 157.5 28.168 157.284 27.952C157.092 27.736 156.972 27.472 156.924 27.16C156.66 26.008 156.228 24.976 155.628 24.064C155.052 23.128 154.356 22.396 153.54 21.868C152.748 21.316 151.86 21.04 150.876 21.04C149.724 21.04 148.74 21.436 147.924 22.228C147.132 23.02 146.508 24.04 146.052 25.288C145.596 26.512 145.296 27.784 145.152 29.104C145.104 29.512 145.068 29.932 145.044 30.364C145.02 30.772 145.008 31.204 145.008 31.66C145.008 33.556 145.2 35.56 145.584 37.672C145.992 39.784 146.496 41.872 147.096 43.936C147.12 44.008 147.132 44.068 147.132 44.116C147.156 44.188 147.168 44.248 147.168 44.296C147.168 44.56 147.084 44.776 146.916 44.944C146.748 45.112 146.568 45.22 146.376 45.268C146.328 45.292 146.268 45.304 146.196 45.304C146.124 45.304 146.064 45.304 146.016 45.304C145.56 45.304 145.236 45.052 145.044 44.548C144.372 42.412 143.82 40.216 143.388 37.96C142.98 35.68 142.776 33.496 142.776 31.408C142.776 30.88 142.788 30.364 142.812 29.86C142.86 29.356 142.908 28.876 142.956 28.42C143.124 26.884 143.496 25.432 144.072 24.064C144.672 22.672 145.452 21.508 146.412 20.572C147.396 19.636 148.524 19.084 149.796 18.916C150.204 18.844 150.612 18.808 151.02 18.808C152.58 18.808 153.996 19.264 155.268 20.176C156.564 21.088 157.548 22.252 158.22 23.668C158.844 22.348 159.72 21.34 160.848 20.644C161.976 19.924 163.164 19.564 164.412 19.564C165.636 19.564 166.812 19.924 167.94 20.644C169.092 21.34 170.052 22.432 170.82 23.92C171.612 25.384 172.068 27.292 172.188 29.644C172.212 29.86 172.224 30.088 172.224 30.328C172.224 30.544 172.224 30.772 172.224 31.012C172.224 33.148 171.984 35.416 171.504 37.816C171.024 40.216 170.4 42.484 169.632 44.62C169.56 44.86 169.428 45.04 169.236 45.16C169.044 45.28 168.852 45.34 168.66 45.34Z" fill="#BDDC89"/>
</g>
<g filter="url(#filter1_d_349_80401)">
<mask id="mask0_349_80401" style="mask-type:luminance" maskUnits="userSpaceOnUse" x="176" y="20" width="17" height="27">
<path d="M193 20H176V47H193V20Z" fill="white"/>
</mask>
<g mask="url(#mask0_349_80401)">
<path d="M189.496 26.7257C191.288 25.1411 192.232 23.1542 191.605 22.2878C190.977 21.4213 189.015 22.0035 187.223 23.5881C185.431 25.1727 184.487 27.1596 185.115 28.026C185.742 28.8925 187.704 28.3103 189.496 26.7257Z" fill="#53AD56"/>
<path d="M183.484 28.2816C184.024 27.6856 183.26 25.8761 181.779 24.2399C180.299 22.6036 178.661 21.7603 178.121 22.3563C177.582 22.9522 178.345 24.7618 179.826 26.398C181.307 28.0342 182.945 28.8776 183.484 28.2816Z" fill="#53AD56"/>
<path d="M190.742 37.0854C191.526 36.3922 190.999 34.2249 189.565 32.2448C188.131 30.2647 186.333 29.2216 185.548 29.9149C184.764 30.6083 185.291 32.7756 186.725 34.7556C188.16 36.7357 189.958 37.7788 190.742 37.0854Z" fill="#BDDC89"/>
<path d="M177.756 37.8326C177.756 39.8952 178.497 41.8734 179.818 43.3319C181.138 44.7904 182.928 45.6098 184.795 45.6098C188.683 45.6098 194.486 38.5645 190.789 37.2358C186.734 35.7782 184.864 30.2062 184.023 30.1021C180.16 29.6231 177.756 33.5373 177.756 37.8326Z" fill="#BDDC89"/>
<path d="M176 21.1738C176.002 22.8507 176.41 24.4966 177.181 25.9409C177.953 27.3852 179.059 28.5754 180.387 29.3884C179.691 29.8147 179.053 30.3464 178.49 30.9681C177.228 32.3607 176.395 34.1565 176.108 36.1012C175.821 38.0459 176.095 40.0413 176.89 41.8047C177.686 43.5681 178.964 45.0105 180.542 45.9276C182.121 46.8445 183.92 47.19 185.686 46.9148C187.452 46.6396 189.095 45.7579 190.383 44.3942C191.67 43.0306 192.537 41.2543 192.86 39.3164C193.183 37.3786 192.947 35.3776 192.184 33.5964C191.421 31.8152 190.171 30.3441 188.61 29.3913C189.939 28.5795 191.047 27.3893 191.82 25.9443C192.592 24.4992 193 22.8521 193.001 21.1741C193.001 21.0199 192.973 20.8672 192.92 20.7248C192.867 20.5823 192.788 20.4529 192.69 20.3439C192.591 20.2348 192.474 20.1484 192.345 20.0894C192.216 20.0304 192.078 20 191.938 20C190.821 19.9967 189.715 20.2382 188.684 20.7104C187.652 21.1827 186.715 21.8763 185.928 22.7512C185.365 23.3726 184.884 24.0779 184.498 24.8466C183.763 23.3793 182.686 22.1562 181.378 21.304C180.071 20.4519 178.581 20.0018 177.063 20.0004C176.923 20.0004 176.785 20.0307 176.656 20.0897C176.528 20.1486 176.41 20.235 176.312 20.344C176.213 20.453 176.135 20.5823 176.081 20.7247C176.028 20.8671 176.001 21.0197 176 21.1738ZM185.671 28.0963C185.908 26.7 186.521 25.4154 187.43 24.4109C188.339 23.4064 189.502 22.729 190.766 22.4676C190.527 23.863 189.914 25.1466 189.005 26.1507C188.096 27.1549 186.934 27.8329 185.671 28.0963ZM189.006 32.6306C189.916 33.6338 190.529 34.9177 190.766 36.3133C189.503 36.0496 188.342 35.3718 187.434 34.3681C186.525 33.3643 185.912 32.0815 185.673 30.6868C186.936 30.9481 188.098 31.6258 189.006 32.6306ZM179.993 32.6283C180.946 31.5696 182.181 30.876 183.517 30.6491C183.767 32.6859 184.615 34.5758 185.93 36.0293C187.246 37.4827 188.956 38.4197 190.8 38.6964C190.644 39.7953 190.256 40.838 189.666 41.739C189.075 42.64 188.301 43.3739 187.404 43.8804C186.508 44.387 185.516 44.6518 184.509 44.6534C183.503 44.6548 182.51 44.393 181.613 43.8891C180.715 43.3852 179.938 42.6537 179.346 41.7543C178.754 40.8551 178.362 39.8136 178.204 38.7152C178.046 37.6168 178.126 36.4926 178.437 35.4347C178.748 34.3768 179.281 33.4153 179.993 32.6288V32.6283ZM178.235 22.4692C179.497 22.7329 180.658 23.4108 181.567 24.4145C182.475 25.4183 183.089 26.7013 183.328 28.096C182.065 27.8323 180.904 27.1544 179.996 26.1506C179.087 25.1469 178.474 23.864 178.235 22.4692H178.235Z" fill="#0E1E28"/>
<path d="M180.176 37.011C180.299 36.8208 180.421 36.5565 180.677 36.6361C180.848 36.6893 180.96 36.8755 181.031 37.0414C181.068 37.1266 181.101 37.2079 181.101 37.3028" stroke="black" stroke-width="0.5" stroke-linecap="round"/>
<path d="M182.949 37.558C183.034 37.4396 183.316 37.0264 183.448 36.9096C183.65 36.7319 183.772 36.9237 183.886 37.094C184.061 37.3541 184.153 37.6181 184.237 37.9228" stroke="black" stroke-width="0.5" stroke-linecap="round"/>
<path d="M181.133 38.9444C181.582 39.0018 182.014 38.9755 182.454 38.8573C182.678 38.7971 182.918 38.8488 183.147 38.8147C183.209 38.8055 183.432 38.7085 183.492 38.7276C183.599 38.7615 183.636 39.6822 183.641 39.8016C183.662 40.3592 183.419 40.9506 182.865 40.9506C182.611 40.9506 182.394 40.4022 182.307 40.1968C182.165 39.8591 182.092 39.4846 181.926 39.1633" stroke="black" stroke-width="0.5" stroke-linecap="round"/>
</g>
</g>
<g filter="url(#filter2_d_349_80401)">
<mask id="mask1_349_80401" style="mask-type:luminance" maskUnits="userSpaceOnUse" x="58" y="20" width="17" height="28">
<path d="M75 20H58V47.2873H75V20Z" fill="white"/>
</mask>
<g mask="url(#mask1_349_80401)">
<path d="M71.4949 26.797C73.2871 25.1955 74.2312 23.1875 73.6036 22.3118C72.976 21.4361 71.0144 22.0245 69.2223 23.6259C67.4301 25.2274 66.486 27.2355 67.1136 28.1111C67.7411 28.9868 69.7027 28.3984 71.4949 26.797Z" fill="#53AD56"/>
<path d="M65.4838 28.3696C66.0232 27.7673 65.2599 25.9385 63.779 24.2849C62.2981 22.6313 60.6602 21.779 60.1209 22.3813C59.5815 22.9836 60.3447 24.8124 61.8257 26.466C63.3066 28.1196 64.9444 28.9719 65.4838 28.3696Z" fill="#53AD56"/>
<path d="M72.7421 37.2675C73.5264 36.5669 72.9994 34.3765 71.5652 32.3753C70.1311 30.3742 68.3327 29.32 67.5485 30.0207C66.7643 30.7215 67.2912 32.9118 68.7254 34.9129C70.1595 36.9141 71.958 37.9683 72.7421 37.2675Z" fill="#BDDC89"/>
<path d="M59.7549 38.0222C59.7549 40.1068 60.4965 42.106 61.8166 43.58C63.1367 45.0541 64.9271 45.8822 66.794 45.8822C70.6817 45.8822 76.4846 38.7619 72.7884 37.419C68.7332 35.946 66.8629 30.3147 66.0225 30.2095C62.1592 29.7254 59.7549 33.6812 59.7549 38.0222Z" fill="#BDDC89"/>
<path d="M58.0005 21.1863C58.0025 22.8811 58.4102 24.5444 59.1814 26.0041C59.9526 27.4638 61.0592 28.6667 62.3867 29.4883C61.691 29.9192 61.0526 30.4565 60.4902 31.0848C59.2285 32.4923 58.3951 34.3071 58.108 36.2726C57.8209 38.238 58.0945 40.2545 58.8903 42.0367C59.686 43.8189 60.9635 45.2766 62.5421 46.2035C64.1206 47.1302 65.9202 47.4793 67.6861 47.2012C69.4521 46.9231 71.0951 46.032 72.3825 44.6538C73.6699 43.2757 74.5365 41.4804 74.8599 39.522C75.1832 37.5635 74.9468 35.5412 74.1841 33.741C73.4214 31.9409 72.171 30.4542 70.61 29.4913C71.9393 28.6708 73.0474 27.4679 73.8196 26.0075C74.5917 24.5471 74.9996 22.8825 75.0007 21.1866C75.0007 21.0308 74.9733 20.8765 74.9199 20.7325C74.8666 20.5885 74.7883 20.4577 74.6896 20.3475C74.5909 20.2373 74.4737 20.1499 74.3448 20.0903C74.216 20.0307 74.0778 20 73.9382 20C72.8215 19.9967 71.7152 20.2407 70.6835 20.718C69.6518 21.1953 68.7151 21.8963 67.9276 22.7805C67.365 23.4085 66.8838 24.1213 66.4979 24.8981C65.7627 23.4153 64.6856 22.1791 63.3782 21.3179C62.0708 20.4567 60.5809 20.0018 59.063 20.0004C58.9235 20.0004 58.7853 20.031 58.6565 20.0906C58.5276 20.1502 58.4104 20.2375 58.3118 20.3477C58.2131 20.4578 58.1348 20.5885 58.0814 20.7324C58.028 20.8763 58.0005 21.0305 58.0005 21.1863ZM67.6713 28.1825C67.9079 26.7713 68.521 25.473 69.4301 24.4578C70.3392 23.4427 71.5019 22.758 72.7656 22.4938C72.5273 23.9041 71.9136 25.2013 71.0049 26.2162C70.0961 27.231 68.9343 27.9162 67.6713 28.1825ZM71.0063 32.765C71.9157 33.7789 72.529 35.0765 72.7656 36.4869C71.5033 36.2204 70.342 35.5354 69.4336 34.521C68.5252 33.5066 67.9116 32.2101 67.673 30.8005C68.9362 31.0646 70.0982 31.7495 71.0063 32.765ZM61.9926 32.7627C62.9458 31.6928 64.1807 30.9918 65.5165 30.7624C65.7669 32.8208 66.6148 34.7309 67.9303 36.1999C69.2458 37.6688 70.9562 38.6157 72.7997 38.8953C72.6444 40.006 72.2558 41.0597 71.6655 41.9703C71.0754 42.8809 70.3005 43.6226 69.4043 44.1345C68.5081 44.6465 67.516 44.9141 66.5094 44.9157C65.5027 44.9171 64.51 44.6525 63.6126 44.1433C62.7151 43.634 61.9384 42.8948 61.3461 41.9858C60.7537 41.0771 60.3625 40.0244 60.2045 38.9143C60.0464 37.8042 60.1261 36.6681 60.4369 35.5989C60.7477 34.5297 61.2808 33.5581 61.9926 32.7632V32.7627ZM60.2349 22.4955C61.4973 22.762 62.6585 23.4471 63.567 24.4615C64.4754 25.4759 65.089 26.7726 65.3277 28.1822C64.0653 27.9157 62.9042 27.2305 61.9958 26.2161C61.0874 25.2017 60.4739 23.9051 60.2353 22.4955H60.2349Z" fill="#0E1E28"/>
<ellipse cx="62.9377" cy="36.5388" rx="0.705308" ry="0.787558" fill="black"/>
<ellipse cx="65.7585" cy="36.5388" rx="0.705308" ry="0.787558" fill="black"/>
<path d="M63.1689 36.053C63.1695 36.0805 63.1718 36.1295 63.1965 36.1453C63.2097 36.1537 63.2403 36.1697 63.2455 36.1422C63.2492 36.1224 63.2244 36.0953 63.224 36.1022C63.2237 36.1083 63.2384 36.1313 63.2424 36.1193C63.2486 36.101 63.2179 36.0696 63.2045 36.0625C63.1726 36.0459 63.1891 36.1178 63.202 36.1282C63.2453 36.1631 63.2386 36.0871 63.2075 36.1391" stroke="white" stroke-width="0.1" stroke-linecap="round"/>
<path d="M66.0342 36.0583C66.0558 36.089 66.0944 36.1053 66.1101 36.1383C66.1167 36.1522 66.1112 36.1303 66.1031 36.1233C66.0936 36.1151 66.0835 36.107 66.0783 36.0953" stroke="white" stroke-width="0.1" stroke-linecap="round"/>
<path d="M62.5586 38.5886C62.6183 38.6248 62.6657 38.6733 62.7198 38.7173C62.7966 38.7797 62.9025 38.7951 62.9937 38.8072C63.1489 38.8279 63.3069 38.8447 63.4628 38.8225C63.5747 38.8066 63.6347 38.7424 63.7271 38.6777C63.8458 38.5944 64.0022 38.474 64.0704 38.3294C64.1246 38.2144 64.1403 38.3202 64.1896 38.3906C64.5282 38.8737 65.1785 38.7991 65.6756 38.7991C65.9448 38.7991 66.2111 38.723 66.4573 38.6012C66.544 38.5582 66.5939 38.4937 66.6555 38.4158C66.686 38.3773 66.7373 38.2804 66.7796 38.2646" stroke="black" stroke-width="0.2" stroke-linecap="round"/>
<path d="M62.8926 38.9935C62.8926 39.48 63.2223 39.8934 63.3809 40.3271C63.4622 40.5494 63.5717 40.7455 63.6791 40.9497C63.7491 41.0829 63.8634 41.184 63.9337 41.3097C63.9503 41.3394 63.9684 41.3673 63.9805 41.4015C64.0873 41.7027 64.253 41.9432 64.4656 42.1627C64.8507 42.5603 65.4302 42.7175 65.9354 42.5496C66.3302 42.4185 66.5459 42.0386 66.7268 41.6498C66.8252 41.4382 66.8435 41.1772 66.8581 40.9425C66.8715 40.7279 66.8683 40.5115 66.867 40.2965C66.8653 40.0147 66.82 39.7255 66.78 39.447C66.7398 39.1674 66.6564 38.9035 66.5769 38.6372" stroke="black" stroke-width="0.2" stroke-linecap="round"/>
</g>
</g>
<defs>
<filter id="filter0_d_349_80401" x="19.5156" y="18.8081" width="228.417" height="35.252" filterUnits="userSpaceOnUse" color-interpolation-filters="sRGB">
<feFlood flood-opacity="0" result="BackgroundImageFix"/>
<feColorMatrix in="SourceAlpha" type="matrix" values="0 0 0 0 0 0 0 0 0 0 0 0 0 0 0 0 0 0 127 0" result="hardAlpha"/>
<feOffset dy="4"/>
<feGaussianBlur stdDeviation="2"/>
<feComposite in2="hardAlpha" operator="out"/>
<feColorMatrix type="matrix" values="0 0 0 0 0 0 0 0 0 0 0 0 0 0 0 0 0 0 0.25 0"/>
<feBlend mode="normal" in2="BackgroundImageFix" result="effect1_dropShadow_349_80401"/>
<feBlend mode="normal" in="SourceGraphic" in2="effect1_dropShadow_349_80401" result="shape"/>
</filter>
<filter id="filter1_d_349_80401" x="172" y="20" width="25" height="35" filterUnits="userSpaceOnUse" color-interpolation-filters="sRGB">
<feFlood flood-opacity="0" result="BackgroundImageFix"/>
<feColorMatrix in="SourceAlpha" type="matrix" values="0 0 0 0 0 0 0 0 0 0 0 0 0 0 0 0 0 0 127 0" result="hardAlpha"/>
<feOffset dy="4"/>
<feGaussianBlur stdDeviation="2"/>
<feComposite in2="hardAlpha" operator="out"/>
<feColorMatrix type="matrix" values="0 0 0 0 0 0 0 0 0 0 0 0 0 0 0 0 0 0 0.25 0"/>
<feBlend mode="normal" in2="BackgroundImageFix" result="effect1_dropShadow_349_80401"/>
<feBlend mode="normal" in="SourceGraphic" in2="effect1_dropShadow_349_80401" result="shape"/>
</filter>
<filter id="filter2_d_349_80401" x="54" y="20" width="25" height="35.2874" filterUnits="userSpaceOnUse" color-interpolation-filters="sRGB">
<feFlood flood-opacity="0" result="BackgroundImageFix"/>
<feColorMatrix in="SourceAlpha" type="matrix" values="0 0 0 0 0 0 0 0 0 0 0 0 0 0 0 0 0 0 127 0" result="hardAlpha"/>
<feOffset dy="4"/>
<feGaussianBlur stdDeviation="2"/>
<feComposite in2="hardAlpha" operator="out"/>
<feColorMatrix type="matrix" values="0 0 0 0 0 0 0 0 0 0 0 0 0 0 0 0 0 0 0.25 0"/>
<feBlend mode="normal" in2="BackgroundImageFix" result="effect1_dropShadow_349_80401"/>
<feBlend mode="normal" in="SourceGraphic" in2="effect1_dropShadow_349_80401" result="shape"/>
</filter>
</defs>
</svg>
